<?xml version="1.0" encoding="utf-8"?>
<!-- Generator: Adobe Illustrator 23.0.2, SVG Export Plug-In . SVG Version: 6.00 Build 0)  -->
<svg version="1.1" id="Capa_1" xmlns="http://www.w3.org/2000/svg" xmlns:xlink="http://www.w3.org/1999/xlink" x="0px" y="0px"
	 viewBox="0 0 289 398" style="enable-background:new 0 0 289 398;" xml:space="preserve">
<style type="text/css">
	.st0{fill:#FEFEFE;}
	.st1{fill:#0F2F4F;}
	.st2{fill:#1EBFD6;}
</style>
<rect x="68" y="0" class="st0" width="155" height="398"/>
<path class="st1" d="M17.64,115.02c-1.76-1.24-3.62-0.96-5.41-0.17c-1.24,0.55-2.34,0.9-3.47-0.12c0,0,0,0.03,0,0.03
	c1.85-0.26,2.23-1.9,3-3.19c0.97-0.01,1.74-0.26,1.76-1.43c0,0,0.17-0.2,0.17-0.21c5.66-4.58,11.43-8.88,19.39-7.53
	c5.36,2.64,9.23,7.11,13.53,11.05c0.56,1.54,1.58,2.71,3.22,2.95c11.47,1.69,20.55-4.65,20.8-16.5c0.03-1.61,0.21-4.21-1.67-4.6
	c-2.03-0.42-2.46,2.07-3.2,3.62c-1.52,1.33-3.1,2.54-5.13,2.97c-1.39,0-2.78,0.04-4.17,0c-2.71-0.08-5.49-0.35-7.14-2.77
	c-2.37-3.49-5.73-6.54-5.54-11.32c0.04-1.03-0.84-1.48-1.55-2c-1.08-6.87-1.04-13.72,0.29-20.56c1.86-0.59,2.47-1.74,1.6-3.56
	c0.78-3.68,3.21-6.54,5.12-9.59c0.95-1.53,1.21-2.94,1.37-4.54c1.16-0.73,1.17-1.53,0.14-2.38c0.13-1.42,0.27-2.84,0.4-4.27
	c0.45-0.18,0.91-0.35,1.36-0.53c0.09,0.51,0.18,1.03,0.26,1.54c-1.09,2.63-0.06,4.89,2.56,4.42c4.18-0.74,3.62,1.95,3.9,4.15
	c0.64,5.01,0.84,10.09,3.04,14.78c8.7,18.6,23.46,30.15,42.99,35.02c13.5,3.37,27.35,2.98,40.83-1.38c1.18-0.38,3.02-0.67,2.79-2.11
	c-0.26-1.63-2.13-0.92-3.29-0.94c-11.43-0.18-22.53-1.75-32.93-6.91c-10.24-5.08-18.73-11.95-24.42-22.07
	c-3.77-6.71-4.54-14.14-4.36-21.41c0.13-5.19,3.59-9.85,5.8-14.68c1.63-3.57,5.19-4.14,7.52-6.46c4.16-4.16,8.96-6.9,15.06-6.96
	c1.79-0.02,3.92,0.38,4.96-1.85c2.52,0.13,4.1-0.81,5.38-3.23c0.95-1.8,2.1-4.78,4.56-4.4c3.07,0.47,5.76,2.56,8.17,4.57
	c1.03,0.86-0.49,1.76-1.06,2.47c-2.3,2.87-4.11,6-5.48,9.4c-0.94,0.39-1.28,0.9-0.37,1.69c-0.11,0.72-0.21,1.44-0.32,2.17
	c-1.94,2.8-1.92,5.61-0.05,8.43c1.84,13.61,14.91,23.15,27.15,19.73c0-1.28-1.19-1.48-1.93-1.91c-11.46-6.47-11.47-20.81-4.11-29.63
	c11.28-13.51,30.22-12.77,42.49-0.14c7.17,7.38,9.96,16.3,9.4,26.43c-0.08,1.4-0.16,2.8-0.23,4.2c2.8-3.54,5.17-7.38,5.53-11.9
	c0.29-3.73,2.02-4.44,5.23-3.85c11.58,2.16,20.46,8.09,26.41,18.39c2.16,3.73,3.19,7.72,3.97,11.85c-0.53,1.57-0.21,2.96,0.88,4.19
	c0.01,0.8,0.02,1.6,0.04,2.39c-1.55,6.99-1.35,14.42-5.23,20.82c-0.39,0.45-0.78,0.9-1.17,1.35c-1.37-0.21-1.97,0.41-1.9,1.76
	c-1.71,1.45-3.79,1.72-5.9,1.87c-0.59,0-1.18,0-1.77,0c-4.36-0.42-8.23-2-11.48-4.96c-0.41-2.42-2.21-2.86-4.19-2.68
	c-2.12,0.19-2.04,1.98-2.08,3.5c-0.05,1.65-0.18,3.36,0.12,4.96c0.96,5.09,3.34,9.14,8.66,10.78c0.5,0.23,0.99,0.47,1.48,0.7
	c1.06,2.06,2.88,1.86,4.72,1.56c2.5,0.09,5,0.17,7.49,0.26c5.33,0.53,7.37-0.53,9.09-4.75c3.69-1.71,5.66-5.45,9.09-7.58
	c5.63-3.48,10.67-1.93,15.57,1.21c3.46,2.22,6.12,5.41,8.4,8.76c1.03,1.51,2.71,3.94-0.75,5.17c0,0-0.1,0.1-0.1,0.1
	c-0.15,0.32-0.29,0.65-0.44,0.97c-1.18-0.27-2.4,0.83-3.56-0.12c-0.38-0.43-0.76-0.86-1.14-1.29c0.17-0.83-0.07-1.29-1.01-1.12
	c-0.44-0.45-0.87-0.9-1.31-1.34c-6.5-4.95-13.58-4.98-17.96,0.14c1.52,0.52,2.28,2.18,4.06,2.19c4.97,4.93,10.4,9.58,11.45,17.1
	c1.81,12.9-4.38,23.58-16.43,28.53c-4.48,1.84-9,2.52-13.74,2.39c-1-0.03-2.33-0.48-2.9,0.4c-0.81,1.24,0.73,1.98,1.28,2.87
	c1.82,2.93,4.32,5.17,7.43,6.69c-0.12,1.89,1.26,1.01,2.09,1.14c2.83,0.84,5.64,0.22,8.44-0.09c1.26,0.46,2.29-0.58,3.49-0.53
	c-1.39,2.23-0.1,4.24,0.72,6.15c0.7,1.63,0.37,2.59-1.01,3.42c-0.66-0.21-0.99,0.01-0.95,0.73c-0.46,0.28-0.92,0.56-1.38,0.84
	c-2.83-0.11-5.43,0.78-5.41,3.89c0.05,6.78-2.5,12.45-6.42,17.7c-0.09,0.21-0.24,0.37-0.44,0.48c-2.03,1.19-4,2.48-6.1,3.55
	c-3.12,1.6-4.34,3.94-3.28,7.35c0.11,2.43-0.27,4.43-2.34,6.29c-2.98,2.67-5.42,5.92-7.26,9.53c-0.31-0.14-0.62-0.27-0.93-0.4
	c-0.05-2.49-0.11-4.98-0.16-7.46c0.92-5.11,0-10.16,0.22-15.65c-1.72,0.89-2.5,1.47-2.34,2.69c-0.18,0.25-0.36,0.5-0.54,0.75
	c-1.92-0.29-1.65,1.57-2.23,2.46c-1.06,1.59-2,3.22-3.64,4.32c-1.07-1.67,0.66-3.12-0.23-4.69c-2.57-0.09-3.09,3.64-5.82,3.31
	c-0.22-3.07,3.11-4.31,3.3-7.05c0.33-0.72,0.66-1.44,0.99-2.16c1.35-0.02,1.45-1.18,1.91-2.05c1.71-3.23,3.64-6.37,5.14-9.69
	c3.75-8.34,5.04-17.08,3.57-26.16c-0.02-2.3-0.03-4.6-0.05-6.9c0.07-4.94-0.01-9.88,0.27-14.81c0.2-3.56-1.02-5.43-4.71-5.79
	c-1.44-0.14-2.86-0.88-4.27-1.43c-5.05-1.96-9.54-4.92-14.26-7.46c-0.25-0.2-0.49-0.39-0.74-0.59c-4.37-4.84-8.76-9.67-12.52-15.01
	c-0.24-0.36-0.48-0.72-0.71-1.08c-1.62-4.98-3.32-9.93-4.81-14.95c-0.57-1.94-1.81-2.53-3.38-1.96c-5.95,2.17-12.32,1.01-18.34,2.46
	c-0.53,0.07-1.05,0.14-1.58,0.21c-1.4-0.24-2.55-0.07-2.76,1.66c-0.58,0.18-1.16,0.35-1.74,0.53c-1.31-0.34-2.74-1.01-3.16,1.14
	l0.06-0.02c-2.22-0.61-3.71,1.53-5.79,1.51c-11.45-0.1-23.01,1.37-34.24-1.81c-4.1-1.16-5.66,0.57-6.62,3.94
	c-4.7,16.48-15.79,26.93-31.39,32.97c-2.61,1.01-3.48,2.36-3.44,5.05c0.14,9.96-0.1,19.92,0.14,29.88
	c0.22,8.92,2.79,17.13,7.83,24.67c2.97,4.44,6.87,8.55,7.41,14.31l0.04-0.04c-3.22-0.44-3.91,0.9-2.86,3.8
	c1.77,4.9,0.94,9.77-0.67,14.52c-0.42,1.25-0.53,2.45-0.58,3.71l0,0.03c-1.63-0.04-1.74,1.07-1.73,2.28
	c-0.11,0.22-0.26,0.42-0.44,0.59c-2.16,0.69-3.44,2.62-4.98,4.01c-3.41,3.08-6.91,6.17-7.65,11.32c-1.02,7.12,2.26,12.96,5.64,18.44
	c1.61,2.6,3.81,5.8,7.73,7.56c-1.59-8.1-0.72-15.49,3.14-21.67c3.82-6.11,6.72-12.91,11.75-18.81c1.03,1.69,0.63,2.97,0.73,4.18
	c0.37,4.62-1,9.04-1.54,13.55c0,0,0.02-0.04,0.02-0.04c-0.45,0.21-1.17,0.3-1.31,0.64c-2.55,5.95-5.53,11.8-4.03,18.65
	c1.26,5.74,4.33,10.48,7.84,15.03c1.2,1.55,3.02,3.08,0.87,5.23c-5.5-1.57-10.98-3.2-16.51-4.67c-1.43-0.38-2.68-0.74-3.42-2.12
	c-1.96-3.63-4.61-6.78-7.45-9.7c-5.01-5.15-6.85-11.47-7.76-18.33c-1.76-13.25-0.52-26.55-0.81-39.82c-0.04-1.82,0.04-3.6-1.52-4.92
	c0.69-2,0.08-4.07,0.3-6.09c0.34-3.17-0.79-5.16-4.05-5.8c-1.95-0.39-3.31-1.72-4.79-2.99c-5.21-4.5-6.63-10.7-7.83-16.97
	c-0.56-2.92-2.08-4.54-4.99-4.92c-1.91-1.81-4.53-3.11-2.55-6.71c0.9-1.64-0.8-3.54-1.7-5.19c1.12,0.2,2.33,0.2,3.35,0.63
	c9.51,4.03,15.38-0.91,20.04-7.37c1.57-2.18,1.02-3.6-1.93-3.45c-5.03,0.25-9.77-0.55-14.42-2.74
	c-10.5-4.95-16.81-17.34-14.33-28.72c1.77-8.08,7.47-12.95,13.89-17.25c0.89-0.6,2.5-0.69,2.2-2.2c-0.27-1.36-1.54-1.93-2.84-2.26
	c-4.66-1.18-9.2-0.69-13.23,1.8C19.43,115.79,18.73,115.66,17.64,115.02z M33.36,149.88c0.08,0.1,0.16,0.21,0.25,0.31
	c3.91,5.74,9.6,6.9,15.98,6.07c1.97-0.26,3.8-1.07,4.08-3.37c0.33-2.69-2.08-2.83-3.61-2.96c-4.32-0.37-8.08-1.86-11.46-4.47
	c-0.03-0.6-0.06-1.21-0.09-1.81c1.22-1.9,0.49-3.95,0.47-5.94c2.07-3.02,4.79-1.46,7.23-0.87c9.24,2.24,17.84,1.15,26.18-3.68
	c6.99-4.05,11.55-10.08,15.28-16.88c3.5-6.35,2.89-8.42-2.85-12.78c-0.5-0.38-0.93-0.84-1.39-1.27c-2.23-2.06-3.51-2.15-3.76,1.45
	c-0.73,10.56-12.01,21.47-21.67,22.54c-3.86,0.16-7.67,0.06-11.55-0.31c-3.6-0.34-7.93-1.58-10.63,2.61
	c-1.68,0.86-2.97,2.09-3.68,3.87c-3.6,2.91-3.76,10.97-0.29,14.52c0.11,0.15,0.21,0.31,0.27,0.48
	C32.12,148.43,32.34,149.35,33.36,149.88z M60.09,87.06c1.1-0.42,1.52-1.3,1.43-2.39c-0.44-5.3-2.57-9.72-6.9-12.95
	c-0.3-1.25-0.59-2.51-0.89-3.76c0.15-1.1,0.57-2.6-1.13-2.52c-1.29,0.06-1.01,1.48-0.9,2.47c-0.13,1.14-0.34,2.27-0.39,3.41
	c-0.27,6.59-1.38,13.3,3.75,18.91c1.38,1.5,2.11,2.18,3.27,0.07C58.92,89.21,60.31,88.57,60.09,87.06z M203.73,61.17
	c-0.07,0.14-0.16,0.25-0.29,0.34c-2.87,1.61-4.3,4.57-6.2,7c-6.54,8.34-14.14,15.4-23.14,21c-1.93,1.2-4.28,1.96-5.72,4.35
	c4.39,1.37,7.84-1.33,11.62-1.69c6.27-0.6,11.92-3.62,18.13-4.38c0.67-0.08,1.13-0.54,1.25-1.26c0.65-0.21,1.31-0.41,1.96-0.62
	c0.45,0.44,0.83,0.44,1.12-0.18c0.65-0.2,1.31-0.41,1.96-0.61c2.09,0.03,4.31,0.5,5.7-1.74c0.92-0.17,1.84-0.35,2.76-0.52
	c0.66,0.47,1.28,0.5,1.82-0.2c1.03,0,2.05-0.01,3.08-0.01c0.97,0.83,2.05,1.31,3.36,1.08c1.38,2.09,3.41,3.66,4.35,6.14
	c0.91,2.39,2.19,2.48,3.68,0.14c0.68-1.07,1.42-2.02,1.76-3.28c2.61-9.62,2.35-19.01-3.91-27.13c-5.12-6.64-10.75-10.87-18.39-3.5
	c-0.82-0.2-1.18,0.15-1.15,0.95c-0.65,0.69-1.3,1.38-1.95,2.07C204.1,59.07,203.84,60.05,203.73,61.17z M243.05,154.47
	c4.76-1.56,9.84-8.29,10.43-13.28c0.98-8.4-6.45-15.93-14.26-14.98c-2.66,0.33-5.36,0.35-8.04,0.51
	c-7.77,0.47-14.94-1.08-21.18-6.06c-6.33-5.06-10.36-11.41-11.35-19.52c-0.31-2.53-1.74-3.38-3.47-1.79
	c-1.7,1.55-3.62,1.85-5.54,2.14c-2.96,0.45-3.41,2.02-2.93,4.58c0.79,4.16,2.06,8.09,4.13,11.83c4.63,8.4,11.47,14.12,20.36,17.45
	c9.04,3.39,18.21,3.46,27.44,0.73c2.68-0.79,4.82-0.32,5.75,2.68c0.51,3.47-0.66,6.36-3.02,8.85c-0.45,0.25-0.9,0.5-1.35,0.75
	c-3.57-0.28-6.91,0.97-10.35,1.57c-0.99,0.17-1.71,0.59-1.04,1.78c-0.17,1.04,0.02,2.01,0.59,2.9c0.58,1.18,1.35,1.87,2.71,1.09
	c2.08,0.49,4.16,0.81,6.26,0.06C240.11,156.49,241.84,156.47,243.05,154.47z M118.96,30.87c0.52-1.57,0.23-2.74-1.52-3.3
	c-4.79-1.53-9.82-2.03-14.21,0.36c-13.66,7.45-14.39,21.61-7.14,33.02c8.31,13.08,20.96,20.11,36.15,22.25
	c19.43,2.74,37.34,0.01,51.18-15.74c8.22-9.35,10.86-24.76,1.33-35.35c-6.64-7.38-22.91-10.17-29.67,1.58
	c-1.75,3.04-1.26,7.87,1.27,11.83c2,3.11,4.64,3.72,7.92,2.84c3.18-0.85,4.77-3.11,5.48-6.2c0.24-1.05-0.09-2.63,1.34-2.9
	c1.51-0.28,2.55,0.85,3.41,2.03c2.53,3.48,2.48,10.81-0.23,14.15c-7.15,8.82-16.7,11.63-27.58,10.54
	c-8.85-0.88-16.66-4.44-22.87-10.88c-6.22-6.45-9.56-12.93-6.19-22.02c0.3,0.02,0.72,0.17,0.88,0.03c0.4-0.35,0.2-0.78-0.11-1.14
	c0.18-0.37,0.35-0.74,0.53-1.11c0.1-0.02,0.19-0.04,0.29-0.05C119.14,30.83,119.05,30.85,118.96,30.87z M54.58,193.23
	c-0.05,0-0.1,0-0.16,0c0-2.8,0.01-5.6-0.01-8.4c0-0.76,0.03-1.62-0.84-1.95c-0.81-0.3-1.33,0.26-1.98,0.73
	c-6.6,4.81-5.94,14.17,0.25,19.44c0.59,0.5,1.22,1.03,2.04,0.62c0.85-0.42,0.67-1.3,0.68-2.03
	C54.6,198.84,54.58,196.04,54.58,193.23z M66.4,217.28c-3.08,7.43-1.4,14.89-1.73,22.16c-0.08,1.65,1.18,1.28,2.01,0.37
	C73.51,232.25,74.8,225.67,66.4,217.28z M228.03,183.55c0,5.16-0.07,9.87,0.04,14.57c0.04,1.66-0.99,4.13,0.82,4.81
	c2.06,0.78,2.61-2.02,3.66-3.25C237.24,194.19,235.29,186.52,228.03,183.55z"/>
<path class="st1" d="M189.86,352.31c-5.94,1.81-11.48,4.61-17.17,7.05c-2.56,1.1-4.07,2.71-1.4,5.47c0.92,0.95,1.22,2.49,1.83,3.75
	c2,4.12,2.81,4.61,6.56,1.97c3.55-2.5,7.61-3.66,11.5-4.85c12.58-3.87,25.51-6.12,38.76-5.82c2.38,0.06,4.76,0.57,7.65,0.94
	c-1.85,2.25-3.24,3.71-6.12,3.88c-13.89,0.84-27.72,2.43-41.27,5.74c-8.15,1.99-16.27,4.23-23.69,8.35
	c-1.16-3.04-1.51-6.27-3.31-9.19c-7.65-12.48-24.13-13.12-34.46-5.39c-4.22,3.15-5.33,8.18-7.31,12.67
	c-0.92-0.88-1.73-1.92-3.08-2.18c-17.28-3.32-34.19-8.69-51.93-9.51c-8.17-0.38-16.35-0.73-24.52-1.17
	c-0.96-0.05-2.61,0.74-2.76-1.06c-0.12-1.44,1.43-1.32,2.29-1.5c15.62-3.2,31.11-2.78,46.5,1.55c7.5,2.11,15.01,4.11,22.07,7.47
	c2.9,1.38,4.55,0.6,5.75-2.53c2.71-7.03,2.9-7.05-4.03-10.57c-6.16-3.12-12.7-5.3-19.33-7.13c-26.33-7.29-53.31-8.95-80.46-9.09
	c-1.53-0.01-3.05-0.13-4.58-0.24c-0.18-0.01-0.34-0.3-0.84-0.79c2.37-1.6,3.8-3.69,2.54-6.63c1.45-0.66,2.97-0.56,4.51-0.54
	c22.97,0.3,45.84,1.22,68.45,6.07c13.69,2.94,26.91,6.88,38.94,14.06c3.43,2.05,5.97,3.61,9.3,0.18c0.82-0.84,2.65-0.7,4-1.03
	c2.03-0.5,4.3-0.01,6.1-1.46c0.97-7.62,3.44-15.27-4.09-21.58c-4.62-3.87-9.23-7.71-14.21-11.09c-1.06-0.72-2.09-1.39-2.85-2.42
	c0.75-3.87-2.69-6.72-2.53-10.5c0.04-1.05-1-2.45,0.11-3.12c1.41-0.86,2.26,0.74,3.09,1.58c2.52,2.56,5.1,5.01,8.52,6.35
	c0.81,0.32,1.7,1.09,2.44,0.33c0.42-0.44,0.59-1.54,0.35-2.13c-1.74-4.17-1.99-8.66-2.98-12.99c-0.2-0.89-0.42-1.93-1.59-1.74
	c-1.07,0.17-1.16,1.25-1.19,2.13c-0.06,1.91-0.02,3.83-0.05,5.74c-0.01,0.78-0.12,1.59-1.1,1.72c-0.68,0.1-1.2-0.28-1.65-0.78
	c-3.61-4.06-4.65-11.81-2.22-16.72c2.92-5.92,2.35-9.28-2.42-13.85c-1.65-1.58-3.45-3-5.09-4.59c-0.88-0.85-1.84-0.94-2.81-0.57
	c-6.7,2.54-11.17,14.93-7.74,21.33c3.98,7.43,9.31,14.42,7.57,23.68c-2.21-0.14-3.58-2.11-5.64-2.58c0.32-1.2,0.02-2.19-0.72-3.21
	c-3.21-4.47-5.92-9.3-7.43-14.55c-2.35-8.14-3.64-16.62,1.78-24.02c3.4-4.63,5.47-9.17,5.11-14.98c-0.17-2.75,0.96-5.34,2.93-7.64
	c3.37-3.93,8.05-4.87,12.58-6.31c1.16-0.37,2.84-0.09,3.28-1.48c0.4-1.28-1.1-1.85-1.86-2.66c-5.73-6.04-7.05-14.08-2.29-20.56
	c6.58-8.97,4.39-18.93,4.39-28.69c0-1.3-0.94-3.2-2.73-1.95c-2.62,1.83-5.66,2.21-8.5,3.28c-10.74,4.06-24.42,0.03-30.59-9.26
	c-1.03-1.56-1.54-3.33-3.78-3.98c-1.56-0.45-1.23-2.15-0.2-3.15c2.44-2.39,4.96-4.7,7.53-6.94c0.93-0.81,2.71-1.38,2.09-2.75
	c-0.69-1.53-2.37-1.26-4.03-0.98c-4.19,0.71-7.75,2.41-10.68,5.48c-0.54,0.57-1.2,1.12-1.99,0.65c-0.28-0.17-0.39-0.9-0.32-1.34
	c0.81-5.29,6.92-11.38,12.68-12.41c11.18-1.98,22.04-0.64,32.76,2.53c7.13,2.11,14.4,4.16,16.41,12.87
	c0.07,0.31,0.47,0.55,0.72,0.83c0.08,2.17,0.24,4.34,0.23,6.51c-0.02,16.47-0.09,32.95-0.1,49.42c0,1.72-0.58,3.86,1.37,4.86
	c4.53,2.31,9.27,2.03,13.6-0.3c4.14-2.22,8.15-4.87,7.76-10.62c-0.17-2.54-0.06-5.11-0.01-7.66c0.02-0.88,0.15-1.95,1.11-2.27
	c1.17-0.4,1.35,0.8,1.87,1.47c1.74,2.24,2.77,4.85,3.86,7.42c-0.32,0.8-0.52,1.54,0.75,1.6c1.16,2.8,0.8,5.7,0.51,8.59
	c-1.94,2.24-3.19,4.99-5.37,7.1c-0.98,0.95-3.17,0.8-2.92,2.95c-0.22,0.22-0.45,0.45-0.67,0.67c-2.8-0.3-3.31,2.39-4.86,3.72
	c-0.24,0.25-0.48,0.5-0.71,0.75c-2.91,3.68-2.9,4.09-0.83,4.07c5.43-0.05,10.59,1.16,15.73,2.63c4.84,2.47,9.52,6.54,14.97,1.01
	c1.3-1.31,3-2.23,4.51-3.33c1.32,0.23,2.4,0.13,2.21-1.65c0.25-0.19,0.51-0.38,0.76-0.57c0.63,0.36,1.1,0.33,1.22-0.52
	c0.44-0.25,0.89-0.49,1.33-0.74c1.25,0.03,2.19-0.35,2.32-1.78c0.46-0.27,0.92-0.55,1.38-0.82c1.26,0.18,2.39,0.17,2.34-1.59
	c0.47-0.3,0.93-0.59,1.4-0.89c0.61,0.55,1.01,0.51,1.13-0.38c0.43-0.31,0.86-0.62,1.29-0.92c0.91,0.34,1.8,0.64,1.5-0.94
	c2.24-1.21,4.57-1.83,7.12-1.24c0.63,1.14,1.44,1.8,2.79,1.09c1.58,2.11,4.22,2.32,6.3,3.53c0.44,1.94,2.48,1.3,3.57,2.2
	c0.75,3.22,1.46,6.44,2.95,9.59c-2.37,0.67-4.46-0.53-6.1-1.58c-3.16-2.02-6.79-2.74-10.06-4.41c-3.66-1.87-6.15,1.49-8.77,3.12
	c-11.14,6.91-22.05,14.17-33.18,21.11c-6.89,4.3-11.37,10.02-13.07,18.1c-1.19,5.67-3.05,11.2-4.62,16.82
	c-1.5-0.4-1.72-1.29-1.86-2.34c-0.87-6.64-0.55-13.26,0.35-19.86c0.5-3.68,2.24-6.9,4.6-9.69c1.22-1.44,1.2-2.84,0.5-4.23
	c-5.49-10.91-17.84-19.84-30.03-20.22c-3.62-0.11-5.96,1.73-7.26,5.01c-1.29,0.68-0.95,1.92-0.25,2.4c2.16,1.52,3.87,3.87,6.84,4.02
	c0.41,0.25,0.81,0.5,1.22,0.75c0.2,1.32,1.05,1.85,2.31,1.89c0.2,0.18,0.39,0.36,0.58,0.54c1.61,2.06,3.38,3.95,5.59,5.4
	c0.21,0.26,0.43,0.52,0.64,0.78c0.47,0.85,0.23,2.32,1.88,2.13c0.26,0.48,0.53,0.96,0.79,1.43c0.34,1.77,0.26,3.76,2.39,4.61
	c0.27,0.74,0.53,1.49,0.8,2.23c0.16,3.1,0.2,6.24,2.65,8.64c0.18,0.94,0.35,1.89,0.53,2.82c-0.5,0.67-0.51,1.27,0.28,1.73
	c0.18,0.72,0.36,1.44,0.53,2.15c-0.35,1.99-0.57,3.95,1.46,5.29c0.3,1.31,0.6,2.62,0.89,3.92c-0.79,1.56-0.7,3.13-0.2,4.77
	c2.36,7.71,5.2,15.27,6.93,23.17c-2.13,6.24-1.41,12.56-0.6,18.88c0.86,2.26,2.78,1.35,4.37,1.45c0.96,0.17,1.92,0.34,2.88,0.5
	c1.82,0.35,3.71,0.29,4.71,2.5c0.85,1.87,2.58,1.16,3.93,0.5c0.89-0.43,1.53-1.38,2.41-1.84c13.58-7.1,27.86-12.38,42.88-15.38
	c15.67-3.13,31.56-4.41,47.53-4.7c5.1-0.09,10.2-0.23,15.17-1.59c5.6,1.19,11.36,0.03,17.64,1.09c-2.64,2.17-5.52,3.66-3.88,7.53
	c0.47,1.12-1.56,0.71-2.43,0.73c-8.28,0.19-16.58,0.01-24.84,0.51c-11.93,0.71-23.84,1.89-35.75,2.88
	c-0.51-0.19-1.08-0.58-1.23,0.39c-1.29,0.07-2.58,0.14-3.86,0.2c-1.16,0.39-2.34,0.79-3.51,1.18c-1.07,0.18-2.14,0.35-3.2,0.53
	C203.29,347.51,196.42,349.35,189.86,352.31z M100.68,178.82c3.04,0.26,5.91-0.35,8.71-2.34c3.5-2.48,3.85-4,0.32-6.66
	c-6.15-4.64-12.68-4.28-19.31-1.15c-4.02,1.89-4.07,4.41-0.65,7.24C92.98,178.57,96.58,179.06,100.68,178.82z M156.72,258.73
	c-0.51,0.46-2.13-0.36-1.81,1.05c0.3,1.35,0.97,3.09,2.82,3.13c1.38,0.03,2.62-0.98,2.49-2.36
	C160.04,258.69,158.14,259.16,156.72,258.73z"/>
<path class="st2" d="M131.41,167.77c-0.25-0.27-0.65-0.51-0.72-0.83c-2.01-8.71-9.28-10.77-16.41-12.87
	c-10.73-3.17-21.59-4.51-32.76-2.53c-5.76,1.02-11.87,7.12-12.68,12.41c-0.07,0.44,0.04,1.17,0.32,1.34
	c0.79,0.47,1.44-0.08,1.99-0.65c2.92-3.07,6.49-4.77,10.68-5.48c1.65-0.28,3.34-0.55,4.03,0.98c0.62,1.37-1.16,1.93-2.09,2.75
	c-2.57,2.24-5.09,4.55-7.53,6.94c-1.03,1.01-1.35,2.7,0.2,3.15c2.24,0.65,2.75,2.42,3.78,3.98c6.17,9.28,19.85,13.32,30.59,9.26
	c2.84-1.07,5.87-1.45,8.5-3.28c1.79-1.25,2.73,0.65,2.73,1.95c0,9.76,2.19,19.72-4.39,28.69c-4.76,6.48-3.43,14.53,2.29,20.56
	c0.76,0.8,2.26,1.37,1.86,2.66c-0.44,1.39-2.12,1.11-3.28,1.48c-4.52,1.44-9.2,2.38-12.58,6.31c-1.97,2.3-3.1,4.89-2.93,7.64
	c0.36,5.81-1.71,10.34-5.11,14.98c-5.42,7.4-4.13,15.88-1.78,24.02c1.52,5.25,4.23,10.08,7.43,14.55c0.73,1.02,1.04,2.02,0.72,3.21
	c-4.57-0.8-8.67-3.02-13.1-4.24c2.15-2.14,0.33-3.68-0.87-5.23c-3.51-4.55-6.59-9.29-7.84-15.03c-1.5-6.85,1.48-12.7,4.03-18.65
	c0.15-0.34,0.86-0.44,1.31-0.64c-0.06,1.27-0.18,2.54-0.17,3.8c0.01,0.83-0.47,1.99,0.64,2.35c1.1,0.35,1.37-0.77,1.81-1.53
	c2.34-4.06,4.7-8.1,7.06-12.15c0.57-0.98,1.29-1.86,1.42-3.09c0.81-7.83,4.89-13.36,12.04-16.57c2.25-1.01,2.11-2.81,1.57-4.5
	c-0.63-1.97-2.21-1.02-3.51-0.65c-8.67,2.5-15.7,11.21-16.66,20.56c-0.43,4.21-0.75,8.61-4.21,11.81c0.54-4.51,1.91-8.93,1.54-13.55
	c-0.1-1.21,0.3-2.48-0.73-4.18c-5.03,5.9-7.93,12.7-11.75,18.81c-3.86,6.18-4.73,13.58-3.14,21.67c-3.92-1.76-6.12-4.96-7.73-7.56
	c-3.38-5.48-6.66-11.32-5.64-18.44c0.74-5.15,4.24-8.24,7.65-11.32c1.55-1.4,2.82-3.32,4.98-4.01c0.12,0.92,0.16,2.12-0.56,2.51
	c-3.63,1.97-5.24,5.7-7.86,8.55c-3.59,3.9-4.09,9.26-1.26,13.6c0.53,0.81,1.11,1.43,2.15,1.2c1.02-0.22,1.44-0.99,1.55-1.94
	c0.15-1.39-0.18-3.04,0.45-4.14c2.52-4.33,4.38-9.03,7.5-13.02c1.34-1.72,1.97-3.79,2.53-5.93c0.6-2.29,0-3.45-2.32-3.73
	c0.05-1.26,0.16-2.46,0.58-3.71c1.6-4.75,2.44-9.62,0.67-14.52c-1.05-2.9-0.36-4.24,2.86-3.8c0.11,0.13,0.21,0.27,0.32,0.4
	c-0.01-0.08,0.01-0.21-0.04-0.25c-0.09-0.07-0.21-0.08-0.32-0.12c-0.54-5.76-4.43-9.87-7.41-14.31c-5.05-7.54-7.62-15.75-7.83-24.67
	c-0.24-9.95,0-19.92-0.14-29.88c-0.04-2.7,0.83-4.04,3.44-5.05c15.61-6.03,26.69-16.49,31.39-32.97c0.96-3.37,2.53-5.1,6.62-3.94
	c11.23,3.17,22.79,1.71,34.24,1.81c2.08,0.02,3.57-2.12,5.79-1.51c-0.07,1.1-0.91,1.45-1.74,1.8c-10.18,4.33-20.33,8.56-31.34,10.6
	c-6.72,1.24-13.43,3.43-16.75,10.62c-0.98,2.12-0.93,3.35,1.23,4.68c4.59,2.82,9.73,4.41,14.51,6.8c0.87,0.44,2.34,0.31,2.15,1.61
	c-0.19,1.31-1.63,1.41-2.76,1.45c-2.07,0.07-4.14,0.02-6.2,0.02c0,0.33,0,0.66,0,0.99c4.65,0.93,9.37,1.22,14.09,1.69
	C129.08,152.55,132.93,156.58,131.41,167.77z"/>
<path class="st2" d="M117.2,15.5c-1.04,2.23-3.16,1.84-4.96,1.85c-6.1,0.06-10.9,2.8-15.06,6.96c-2.33,2.33-5.89,2.9-7.52,6.46
	c-2.21,4.83-5.67,9.49-5.8,14.68c-0.18,7.27,0.58,14.7,4.36,21.41c5.69,10.12,14.18,17,24.42,22.07c10.41,5.16,21.5,6.73,32.93,6.91
	c1.16,0.02,3.03-0.69,3.29,0.94c0.23,1.44-1.6,1.73-2.79,2.11c-13.48,4.36-27.33,4.75-40.83,1.38
	c-19.54-4.87-34.29-16.42-42.99-35.02c-2.2-4.7-2.4-9.78-3.04-14.78c-0.28-2.2,0.28-4.9-3.9-4.15c-2.61,0.47-3.65-1.79-2.56-4.42
	c1.19,0.9,0.72,3.34,2.72,3.34c2.09,0,2.3-2.1,3.07-3.48c2.58-4.64,4.88-9.45,8.42-13.64c-1.81,6.58-2.54,13.12-0.18,19.59
	c1.86,5.08,3.52,10.25,6.93,14.65c0.88,1.13,2.05,1.4,3.03,2.15c1.76,1.36,2.61,0.46,2.45-1.47c-0.17-2.15-0.48-4.3-0.86-6.43
	c-2.59-14.48,1.55-26.58,13.7-35.03C99.43,16.45,107.83,13.42,117.2,15.5z"/>
<path class="st2" d="M140.35,350.77c-1.8,1.45-4.07,0.96-6.1,1.46c-1.36,0.34-3.18,0.19-4,1.03c-3.33,3.43-5.87,1.87-9.3-0.18
	c-12.03-7.19-25.25-11.13-38.94-14.06c-22.61-4.85-45.48-5.77-68.45-6.07c-1.54-0.02-3.06-0.12-4.51,0.54
	c-2.3,0.06-4.59,0.15-6.89,0.16c-0.96,0-2.38,0.31-2.42-1.13c-0.04-1.69,1.49-0.94,2.32-0.95c3.83-0.04,7.66,0,11.5,0.09
	c2.05,0.05,3.84-0.47,5.03-2.19c3.2-4.61,7.52-8.23,11-12.57c1.2-1.5,2.32-1.59,3.29,0.05c0.93,1.58,2.3,1.83,3.91,1.8
	c17.58-0.28,34.9,2.12,51.68,6.94c15.7,4.52,30.84,10.77,42.42,23.17c1.69,1.81,3.86,2.34,6.28,2.01
	C138.22,350.72,139.26,349.66,140.35,350.77z"/>
<path class="st2" d="M271.47,331.57c-4.97,1.36-10.08,1.5-15.17,1.59c-15.97,0.29-31.86,1.57-47.53,4.7
	c-15.03,3-29.3,8.28-42.88,15.38c-0.88,0.46-1.52,1.41-2.41,1.84c-1.35,0.66-3.09,1.37-3.93-0.5c-1-2.21-2.89-2.16-4.71-2.5
	c5.52-5.61,11.41-10.79,18.14-14.9c12.95-7.92,27.27-12.4,42.04-14.97c11.48-2,23.05-4.3,34.86-3.66c2.19,0.12,4.31,0.03,5.83-2.04
	c1.11-1.52,2.42-1.12,3.52,0.11C263.55,321.4,268.45,325.72,271.47,331.57z"/>
<path class="st2" d="M121.43,376.86c1.97-4.49,3.09-9.52,7.31-12.67c10.34-7.72,26.81-7.08,34.46,5.39
	c1.79,2.92,2.15,6.15,3.31,9.19c-0.25,0.72-0.52,1.42-0.75,2.14c-2.95,9.14-2.95,9.12-12.73,9.08c-7.39-0.03-14.79,0.04-22.18,0.02
	c-4.6-0.01-6.64-1.6-7.83-6.1C122.4,381.6,121.95,379.22,121.43,376.86z"/>
<path class="st2" d="M17.64,115.02c1.08,0.64,1.79,0.77,3.18-0.09c4.03-2.49,8.57-2.98,13.23-1.8c1.3,0.33,2.57,0.9,2.84,2.26
	c0.3,1.52-1.31,1.61-2.2,2.2c-6.42,4.31-12.13,9.17-13.89,17.25c-2.49,11.38,3.83,23.78,14.33,28.72c4.65,2.19,9.39,2.99,14.42,2.74
	c2.96-0.14,3.51,1.27,1.93,3.45c-4.66,6.46-10.53,11.4-20.04,7.37c-1.02-0.43-2.23-0.43-3.35-0.63
	c-5.44-4.03-10.87-8.06-13.89-15.46c4.62,1.68,6.58,6.6,11.69,5.77c-0.45-2.78-2.65-4.52-4.36-6.15
	c-9.76-9.33-9.93-26.75-1.34-37.44c0.94-1.18,3.36-2.22,1.79-3.94c-1.24-1.37-3.34-0.61-4.87,0.59c-0.28,0.22-0.67,0.28-1.56,0.62
	C16.34,118.41,16.99,116.72,17.64,115.02z"/>
<path class="st2" d="M109.91,311.56c1.74-9.26-3.59-16.25-7.57-23.68c-3.44-6.4,1.03-18.79,7.74-21.33
	c0.97-0.37,1.93-0.28,2.81,0.57c1.64,1.59,3.44,3.01,5.09,4.59c4.78,4.58,5.34,7.93,2.42,13.85c-2.42,4.91-1.39,12.66,2.22,16.72
	c0.45,0.5,0.96,0.88,1.65,0.78c0.99-0.14,1.09-0.94,1.1-1.72c0.03-1.91-0.01-3.83,0.05-5.74c0.03-0.88,0.12-1.96,1.19-2.13
	c1.17-0.19,1.38,0.85,1.59,1.74c0.99,4.33,1.24,8.82,2.98,12.99c0.24,0.59,0.07,1.69-0.35,2.13c-0.74,0.77-1.63-0.01-2.44-0.33
	c-3.42-1.35-6-3.79-8.52-6.35c-0.83-0.84-1.68-2.44-3.09-1.58c-1.11,0.67-0.06,2.08-0.11,3.12c-0.16,3.78,3.28,6.63,2.53,10.5
	C115.54,315.59,112.95,313.07,109.91,311.56z"/>
<path class="st1" d="M228.38,275.62c-3.51-0.94-6.42-3.18-9.24-5.17c-3.86-2.73-7.62-3.25-11.35-0.93
	c-9.93,6.18-20.6,10.92-30.94,16.3c-1.94,1.01-3.92,1.75-6.39,1.83c1.62-4.41,5.45-6.73,8.6-9.21c8.91-6.99,17.97-13.84,27.51-20
	c1.53-0.99,2.68-0.99,4.51-0.52c7.08,1.82,13.21,5.67,19.77,8.58c-0.47,0.75,0.01,1.32,0.36,1.92c-2.56,1.57-3.39,3.78-2.5,6.64
	C228.39,275.12,228.28,275.31,228.38,275.62z"/>
<path class="st2" d="M42.22,85.79c0.71,0.52,1.6,0.97,1.55,2c-0.19,4.78,3.17,7.83,5.54,11.32c1.65,2.42,4.43,2.7,7.14,2.77
	c1.39,0.04,2.78,0,4.16,0c-0.63,2.16-2.43,1.85-4.05,1.94c-6.27,0.33-12.29-0.64-18.19-2.88c-1.72-0.65-4.3-1.71-5.29,1.47
	c-7.96-1.35-13.73,2.95-19.39,7.53c0.32-5.81,2.45-10.73,7.26-14.23c2.16-1.57,4.01-3.3,5.62-5.53c1.84-2.55,5.25-1.67,7.35-0.78
	C38.41,91.27,40.42,89.18,42.22,85.79z"/>
<path class="st1" d="M234.7,295.84c-1.52,1.16-3.29,1.41-4.47-0.09c-5.86-7.45-12.12-4.23-18.59-1.09
	c-4.03,1.96-8.13,3.87-13.15,5.17c2.13-4.43,5.79-6.58,8.84-9.06c3.48-2.83,6.93-5.75,10.68-8.29c1.98-1.34,3.45-1.23,5.24-0.42
	c2.07,0.93,4.07,1.99,6.1,3C232.25,288.09,234.4,291.51,234.7,295.84z"/>
<path class="st2" d="M32.34,188.4c2.9,0.38,4.43,2,4.99,4.92c1.21,6.28,2.62,12.47,7.83,16.97c1.48,1.27,2.83,2.61,4.79,2.99
	c3.25,0.64,4.39,2.63,4.05,5.8c-0.22,2.02,0.4,4.08-0.3,6.09c-5.61-4.76-11.42-9.25-15.97-15.2
	C32.73,203.46,30.96,196.39,32.34,188.4z"/>
<path class="st2" d="M238.19,209.86c3.92-5.25,6.47-10.91,6.42-17.7c-0.02-3.11,2.58-4.01,5.41-3.89
	c-0.78,7.22-1.05,14.64-7.22,19.88C241.5,209.25,240.26,210.74,238.19,209.86z"/>
<path class="st2" d="M148.18,331.25c-1.73-7.9-4.57-15.46-6.93-23.17c-0.5-1.63-0.58-3.21,0.2-4.77c2.01,6.28,4.3,12.48,5.88,18.86
	c0.76,3.05,1.48,3.78,4.05,1.92c0.8-0.58,1.71-1.6,2.63-0.51c0.86,1.01-0.17,2.18-0.81,2.65
	C151.27,327.66,150.63,330.37,148.18,331.25z"/>
<path class="st2" d="M237.62,97.18c3.88-6.41,3.68-13.84,5.23-20.82c0.83,0.71,0.39,1.66,0.45,2.49c0.2,2.54-0.85,5.24,1.9,7.36
	c0.64,0.5-2.56,2.99,0.25,4.76c0.34,0.22-2.35,1.79-3.48,2.97C240.8,95.16,239.77,97.08,237.62,97.18z"/>
<path class="st2" d="M217.9,113.75c-5.32-1.64-7.7-5.7-8.66-10.78c-0.3-1.61-0.17-3.31-0.12-4.96c0.04-1.52-0.04-3.31,2.08-3.5
	c1.98-0.18,3.78,0.26,4.19,2.68c-1.79-0.04-3.61-0.18-4.68,1.74c-1.54,2.77,0.25,5.5,1.54,7.02
	C214.37,108.43,215.43,111.61,217.9,113.75z"/>
<path class="st2" d="M234.7,295.84c-0.3-4.33-2.44-7.75-5.35-10.79c4.15,1.31,7.18,4.19,10.06,7.24c1.17,1.24,0.78,2.3-0.73,2.94
	C237.41,295.76,236.14,296.38,234.7,295.84z"/>
<path class="st2" d="M251.53,118.63c-1.78-0.02-2.54-1.67-4.06-2.19c4.38-5.12,11.46-5.09,17.96-0.14c-2.76,0.39-5.4-0.5-7.97-1.14
	C253.96,114.29,252.49,114.89,251.53,118.63z"/>
<path class="st2" d="M189.86,352.31c6.56-2.96,13.43-4.8,20.55-5.71c-0.44,1.26-1.6,1.15-2.58,1.37
	c-5.23,1.12-10.56,1.89-15.46,4.24C191.64,352.55,190.72,352.96,189.86,352.31z"/>
<path class="st2" d="M228.38,221.23c-1.06-3.41,0.15-5.75,3.28-7.35c2.09-1.07,4.07-2.36,6.1-3.55c0.98,3.16-2.02,3.57-3.54,4.31
	c-2.8,1.37-4.99,2.69-4.76,6.22C229.49,221.51,228.89,221.54,228.38,221.23z"/>
<path class="st2" d="M240.69,111.53c-1.72,4.21-3.77,5.28-9.09,4.75c1.06-1.61,2.91-1.44,4.44-1.8
	C238,114.02,239.11,112.45,240.69,111.53z"/>
<path class="st2" d="M118.92,259c-2.96-0.16-4.68-2.51-6.84-4.02c-0.7-0.49-1.04-1.73,0.25-2.4c1.39,2.01,3.25,3.48,5.44,4.48
	C118.72,257.48,119.29,257.9,118.92,259z"/>
<path class="st2" d="M128.62,267.58c-2.2-1.45-3.98-3.34-5.59-5.4C126.74,262.08,127.86,264.65,128.62,267.58z"/>
<path class="st2" d="M218.88,241.15c-1.09-0.9-3.12-0.26-3.57-2.21c1.43-0.12,1.64-1.59,2.53-2.29c0.31,0.13,0.62,0.26,0.93,0.4
	C219.07,238.42,219.28,239.78,218.88,241.15z"/>
<path class="st2" d="M137.77,287.4c-2.46-2.4-2.49-5.54-2.65-8.64C136.48,281.5,138.05,284.17,137.77,287.4z"/>
<path class="st2" d="M268.9,120.03c1.16,0.94,2.39-0.16,3.56,0.12c-1.34,1.73-0.76,3.54-0.48,4.41
	C271.95,123.17,268.86,122.55,268.9,120.03z"/>
<path class="st2" d="M231.21,268.42c-0.35-0.6-0.83-1.17-0.36-1.92c1.7-0.41,3.53,0.32,5.31-0.55
	C235.2,268.24,233.26,268.44,231.21,268.42z"/>
<path class="st2" d="M128.03,36.61c-1.86-2.82-1.88-5.64,0.05-8.43C128.5,30.99,128.43,33.8,128.03,36.61z"/>
<path class="st2" d="M140.57,299.39c-2.03-1.34-1.81-3.3-1.46-5.29C140.77,295.55,140.94,297.4,140.57,299.39z"/>
<path class="st2" d="M224.1,116.01c-1.85,0.3-3.66,0.5-4.72-1.56C221.16,114.37,223.08,113.84,224.1,116.01z"/>
<path class="st2" d="M151.96,351.58c-1.59-0.09-3.51,0.81-4.37-1.45C149.2,350.14,150.99,349.62,151.96,351.58z"/>
<path class="st2" d="M213.61,346.07c1.18-0.39,2.35-0.79,3.51-1.18c1.07,0.63,1.17,1.28-0.15,1.61
	C215.84,346.78,214.65,346.8,213.61,346.07z"/>
<path class="st2" d="M134.31,276.54c-2.13-0.85-2.05-2.84-2.39-4.61C133.58,273.02,134.43,274.53,134.31,276.54z"/>
<path class="st2" d="M252.64,177.12c-1.2-0.05-2.24,0.99-3.49,0.53c0.71-2.19,2.84-1.88,4.21-1.74
	C254.3,176,253.27,176.86,252.64,177.12z"/>
<path class="st2" d="M242.81,73.97c-1.09-1.23-1.41-2.63-0.88-4.19C242.96,71.02,243.55,72.35,242.81,73.97z"/>
<path class="st2" d="M228.38,275.62c-0.1-0.31,0.01-0.49,0.32-0.56c0.68,0.82,1.36,1.63,2.3,2.76
	C229.53,277.31,228.27,277.21,228.38,275.62z"/>
<path class="st2" d="M44.11,61.67c0.88,1.82,0.26,2.97-1.6,3.56C42.33,63.73,42.64,62.44,44.11,61.67z"/>
<path class="st2" d="M131.14,270.5c-1.65,0.19-1.41-1.28-1.88-2.13C131.29,267.84,131.36,269.04,131.14,270.5z"/>
<path class="st2" d="M122.45,261.64c-1.26-0.04-2.11-0.58-2.31-1.89C121.41,259.76,122.91,259.5,122.45,261.64z"/>
<path class="st2" d="M240.7,177.74c-0.84-0.12-2.22,0.75-2.09-1.14C239.57,176.51,240.81,175.88,240.7,177.74z"/>
<path class="st2" d="M234.55,100.29c-0.07-1.35,0.54-1.97,1.9-1.76C236.25,99.59,235.66,100.22,234.55,100.29z"/>
<path class="st2" d="M52.49,40.36c-0.45,0.18-0.91,0.35-1.36,0.53c-0.7-1.49,0.34-2.57,0.62-4.19
	C52.77,38.12,52.73,39.22,52.49,40.36z"/>
<path class="st2" d="M226.88,102.15c0.59,0,1.18,0,1.77,0c0.11,0.85-0.45,0.97-1.07,0.92C227.07,103.03,226.72,102.76,226.88,102.15
	z"/>
<path class="st2" d="M138.58,291.95c-0.8-0.46-0.78-1.06-0.28-1.73C139.18,290.67,139.43,291.22,138.58,291.95z"/>
<path class="st2" d="M50.74,45.15c1.03,0.86,1.02,1.65-0.14,2.38C49.72,46.69,49.87,45.9,50.74,45.15z"/>
<path class="st2" d="M220.98,344.69c0.15-0.96,0.72-0.58,1.23-0.39c0.56,0.36,0.16,0.62-0.15,0.69
	C221.7,345.07,221.12,345.51,220.98,344.69z"/>
<path class="st2" d="M128.4,26.01c-0.91-0.79-0.58-1.31,0.37-1.69C129.15,24.99,129.05,25.56,128.4,26.01z"/>
<path class="st2" d="M13.53,110.14c-0.02,1.18-0.79,1.42-1.76,1.43C11.63,110.21,12.16,109.67,13.53,110.14z"/>
<path class="st2" d="M266.74,117.63c0.94-0.17,1.18,0.29,1.01,1.12C266.97,118.77,266.49,118.53,266.74,117.63z"/>
<path class="st2" d="M251.4,187.43c-0.04-0.71,0.29-0.94,0.95-0.73C252.53,187.6,252.27,187.91,251.4,187.43z"/>
<path class="st2" d="M8.77,114.76c0,0,0-0.03,0-0.03c-0.09,0.01-0.17,0.01-0.26,0.01C8.6,114.75,8.68,114.75,8.77,114.76z"/>
<polygon class="st2" points="272.9,119.18 273,119.08 273.08,119.27 "/>
<path class="st0" d="M217.85,236.65c-0.9,0.71-1.11,2.18-2.53,2.29c-2.08-1.21-4.72-1.42-6.3-3.53c-0.7-0.95-1.53-1.57-2.79-1.09
	c-2.55-0.6-4.89,0.03-7.12,1.24c-0.86-0.26-1.57-0.28-1.51,0.94c-0.43,0.31-0.86,0.62-1.28,0.92c-0.61-0.55-0.93-0.26-1.14,0.38
	c-0.47,0.3-0.93,0.59-1.4,0.88c-1.22-0.12-2.19,0.14-2.35,1.59c-0.46,0.27-0.92,0.55-1.37,0.82c-1.47-0.33-2.44,0.02-2.33,1.78
	c-0.44,0.25-0.89,0.49-1.33,0.74c-0.72-0.56-1.06-0.22-1.22,0.52c-0.25,0.19-0.51,0.38-0.76,0.57c-1.12,0.04-1.94,0.48-2.22,1.66
	c-1.52,1.1-3.22,2.01-4.51,3.33c-5.44,5.52-10.13,1.46-14.96-1.01c-1.96-1.89-6.78-3.59-12.05-3.62c-2.53-0.02-3.09-0.95-2.86-3.08
	c0.24-0.25,0.48-0.5,0.71-0.75c2.82,0.32,4.26-1.15,4.87-3.72c0.22-0.22,0.45-0.45,0.67-0.67c3.85-0.45,7.91-5.37,8.29-10.05
	c0.3-2.89,0.65-5.78-0.51-8.58c0.24-0.76,0.47-1.52-0.75-1.61c-1.1-2.57-2.12-5.18-3.86-7.42c-0.52-0.67-0.71-1.87-1.87-1.47
	c-0.95,0.33-1.09,1.39-1.11,2.27c-0.06,2.55-0.16,5.12,0.01,7.66c0.39,5.76-3.62,8.41-7.76,10.62c-4.34,2.32-9.07,2.61-13.6,0.3
	c-1.95-1-1.37-3.14-1.37-4.86c0.01-16.47,0.08-32.95,0.1-49.42c0-2.17-0.15-4.34-0.23-6.51c1.52-11.2-2.33-15.23-12.93-16.27
	c-4.73-0.47-9.45-0.76-14.09-1.69c0-0.33,0-0.66,0-0.99c2.07,0,4.14,0.05,6.2-0.02c1.12-0.04,2.56-0.14,2.76-1.45
	c0.19-1.3-1.27-1.18-2.15-1.61c-4.78-2.39-9.91-3.98-14.51-6.8c-2.16-1.33-2.21-2.56-1.23-4.68c3.32-7.19,10.04-9.38,16.75-10.62
	c11.02-2.04,21.17-6.27,31.34-10.6c0.83-0.35,1.67-0.7,1.74-1.8c0,0-0.06,0.02-0.06,0.02c1.3,0.31,2.38,0,3.16-1.14
	c0.58-0.18,1.16-0.35,1.74-0.53c1.11-0.23,2.01-0.83,2.77-1.66c0.53-0.07,1.05-0.14,1.57-0.21c4.25,2.47,9.06,1.88,13.61,2.16
	c7.4,0.46,7.12,0.38,10.49,8.08c0.65,1.49,0.19,3.63,2.43,4.2c0.24,0.36,0.48,0.72,0.71,1.07c-0.41,1.46,0.08,2.87,0.91,3.91
	c2.24,2.8,4.51,5.62,7.14,8.04c1.27,1.17,1.58,4.18,4.48,3.07c0.25,0.2,0.49,0.39,0.73,0.59c-0.46,0.68-0.2,1.27,0.4,1.59
	c5.05,2.71,9.28,6.8,15.21,8.09c5.95,1.29,6.13,1.97,6.17,8.02c0.02,3.31,0.02,6.62,0.11,9.93c0.02,0.73-0.48,1.95,1.08,1.87
	c0.02,2.3,0.03,4.6,0.05,6.89c-2.18,1.11-1.1,3.13-1.01,4.62c0.64,10.26-1.66,19.61-7.28,28.31c-0.87,1.35-3.51,2.48-2.33,4.98
	c-0.33,0.72-0.66,1.44-0.99,2.16c-3.21,1.05-3.75,4.36-5.56,6.6c-0.65,0.8-1.54,1.64-0.7,2.64c0.74,0.88,1.79,0.58,2.77,0.06
	c2.38-1.25,3.6-0.87,2.98,2.16c-0.16,0.8-0.53,1.93,0.45,2.42c0.88,0.43,2.06-0.18,2.35-0.83c1.78-3.99,5.43-6.93,6.32-11.38
	c0.18-0.25,0.36-0.5,0.54-0.75c0.85,3.27,1,6.6,1.05,9.96c0.02,1.01-0.9,2.6,1.07,2.99C217.74,231.68,217.79,234.17,217.85,236.65z
	 M194.67,180.82c1.34,0.2,2-0.28,1.73-1.71c0.2-0.21,0.39-0.43,0.59-0.64c3.07-1.29,4.53-4.35,6.97-6.35
	c0.45-0.37,0.8-1.74-0.84-1.45c-2.01-1.76-4.02-3.52-6.03-5.28c0.28-1.89-0.76-2.13-2.25-1.79c-0.74-0.45-1.49-0.9-2.23-1.35
	c0.03-1.31-0.76-2.74,2.03-2.32c1.93,0.29,4.08,1.16,6.17,0.36c2.61,0.74,4.62,2.39,6.37,4.37c0.62,0.7,1.37,1.5,2.2,0.89
	c0.87-0.64,0.18-1.63-0.19-2.42c-0.27-0.57-0.53-1.17-0.89-1.68c-5.46-7.71-12.85-11.45-22.37-11.39
	c-8.67,0.06-17.01,1.88-25.06,4.74c-4.59,1.63-9.9,3.04-11.5,8.86c-2.28,1.13-1.82,3.35-1.65,5.12c0.46,4.9,1.23,9.78,1.94,14.65
	c0.13,0.93-0.27,2.31,0.98,2.61c1.15,0.28,2.34-0.45,2.89-1.44c1-1.81,2.62-2.1,4.36-2.34c0.52,0.21,1.05,0.42,1.57,0.63
	c1.55,3.76,4.99,5,8.44,5.44c4.03,0.51,8.18,0.37,12.25,0.14c2.49-0.14,5.25-0.24,6.92-2.73c0.42-0.23,0.84-0.46,1.26-0.69
	c2.86,0.25,4.47-1.47,5.78-3.66C194.29,181.21,194.48,181.01,194.67,180.82z"/>
<path class="st0" d="M117.64,33.09c-3.38,9.09-0.04,15.57,6.19,22.02c6.21,6.44,14.01,10,22.87,10.88
	c10.87,1.09,20.43-1.73,27.58-10.54c2.71-3.35,2.76-10.68,0.23-14.15c-0.86-1.18-1.9-2.31-3.41-2.03c-1.43,0.26-1.1,1.85-1.34,2.9
	c-0.71,3.08-2.3,5.35-5.48,6.2c-3.28,0.88-5.93,0.27-7.92-2.84c-2.54-3.96-3.02-8.79-1.27-11.83c6.76-11.75,23.03-8.96,29.67-1.58
	c9.52,10.59,6.88,25.99-1.33,35.35c-13.84,15.75-31.75,18.48-51.18,15.74c-15.19-2.14-27.84-9.17-36.15-22.25
	c-7.25-11.41-6.52-25.57,7.14-33.02c4.39-2.39,9.42-1.9,14.21-0.36c1.75,0.56,2.04,1.73,1.52,3.3c0,0-0.02,0-0.02,0
	c-0.18,0.37-0.35,0.74-0.53,1.11C117.85,32.13,117.48,32.42,117.64,33.09z"/>
<path class="st0" d="M240.02,148.35c0.45-0.25,0.9-0.5,1.35-0.74c0.12,0.31,0.32,0.88,0.36,0.87c3.23-0.89,4.89-7,2.66-9.73
	c-0.93-3-3.07-3.47-5.75-2.68c-9.23,2.74-18.4,2.66-27.44-0.73c-8.89-3.33-15.73-9.05-20.36-17.45c-2.06-3.75-3.34-7.67-4.13-11.83
	c-0.49-2.56-0.04-4.14,2.93-4.58c1.92-0.29,3.84-0.58,5.54-2.14c1.74-1.59,3.17-0.73,3.47,1.79c0.99,8.11,5.02,14.46,11.35,19.52
	c6.24,4.99,13.41,6.53,21.18,6.06c2.68-0.16,5.38-0.18,8.04-0.51c7.81-0.96,15.24,6.57,14.26,14.98
	c-0.58,4.99-5.66,11.72-10.42,13.28c-1.77-0.15-3.39,0.27-4.86,1.27c-2.09,0.75-4.18,0.43-6.25-0.06c-0.66-0.96-1.45-1.62-2.72-1.09
	c-0.57-0.89-0.76-1.86-0.59-2.9c2.52-0.4,5.04-0.77,7.55-1.22C237.68,150.21,239.43,150.31,240.02,148.35z"/>
<path class="st0" d="M205.54,59.14c0.65-0.69,1.3-1.38,1.95-2.06c0.91,0.31,1.34,0.05,1.15-0.96c7.64-7.37,13.27-3.14,18.39,3.5
	c6.26,8.12,6.52,17.51,3.91,27.13c-0.34,1.26-1.08,2.21-1.76,3.28c-1.5,2.34-2.78,2.24-3.68-0.14c-0.94-2.48-2.97-4.05-4.35-6.13
	c-0.88-1.1-2.04-1.34-3.36-1.09c-1.03,0-2.05,0.01-3.07,0.01c-0.69-0.76-1.29-0.56-1.82,0.2c-0.92,0.17-1.84,0.35-2.76,0.52
	c-2.24-0.54-4.05,0.35-5.71,1.74c-0.65,0.2-1.31,0.41-1.95,0.61c-0.49-0.7-0.82-0.35-1.12,0.18c-0.65,0.21-1.31,0.41-1.96,0.62
	c-0.53-0.72-1.12-0.16-1.68-0.05c-6.37,1.25-12.56,3.46-19.14,3.49c-0.2-0.15-0.38-0.33-0.53-0.53c-0.11-1.21,0.99-1.37,1.67-1.82
	c2.93-1.94,5.75-4.01,8.47-6.26c4.9-4.07,8.05-9.68,12.75-13.88c1.86-1.66,2.59-3.6,2.51-5.97c0.13-0.09,0.22-0.2,0.29-0.34
	C205.18,61.25,205.85,60.63,205.54,59.14z"/>
<path class="st0" d="M38.52,143.65c0.03,0.6,0.06,1.21,0.09,1.81c0.13,5.02,0.13,5.02-5,4.72c-0.08-0.1-0.17-0.2-0.25-0.31
	c0.72-1.39-0.08-2.02-1.23-2.48c-0.07-0.17-0.16-0.33-0.27-0.48c-0.74-4.86-0.65-9.7,0.29-14.52c0.72-1.77,2-3.01,3.68-3.87
	c2.96,0.08,5.76,0.88,8.57,1.71c1.2,0.35,2.36,1.12,3.68,0.52c3.31-1.5,6.62-3.02,9.93-4.53c9.66-1.07,20.94-11.98,21.67-22.54
	c0.25-3.6,1.53-3.51,3.76-1.45c0.46,0.43,0.89,0.89,1.39,1.27c5.74,4.35,6.35,6.42,2.85,12.78c-3.74,6.79-8.29,12.82-15.28,16.88
	c-8.34,4.83-16.94,5.93-26.18,3.68c-2.44-0.59-5.16-2.16-7.23,0.87C36.58,139.51,37.23,141.56,38.52,143.65z"/>
<path class="st0" d="M33.08,102.4c1-3.18,3.58-2.12,5.29-1.47c5.9,2.24,11.92,3.21,18.19,2.88c1.62-0.09,3.42,0.23,4.05-1.94
	c2.04-0.43,3.63-1.64,5.14-2.97c1.68,4.26,0.71,6.35-3.59,8.89c-4.86,2.86-10.27,4.06-15.56,5.65
	C42.31,109.51,38.44,105.05,33.08,102.4z"/>
<path class="st0" d="M87.78,265.23c3.46-3.2,3.78-7.59,4.21-11.81c0.96-9.36,7.99-18.07,16.66-20.56c1.31-0.38,2.88-1.32,3.51,0.65
	c0.54,1.69,0.69,3.49-1.57,4.5c-7.15,3.21-11.22,8.74-12.04,16.57c-0.13,1.23-0.84,2.11-1.42,3.09c-2.36,4.04-4.73,8.09-7.06,12.15
	c-0.44,0.76-0.7,1.88-1.81,1.53c-1.11-0.35-0.64-1.52-0.64-2.35c-0.01-1.27,0.11-2.54,0.17-3.8
	C87.79,265.19,87.78,265.23,87.78,265.23z"/>
<path class="st2" d="M178.57,89.98c6.59-0.04,12.78-2.24,19.14-3.49c0.55-0.11,1.14-0.67,1.68,0.05c-0.13,0.72-0.59,1.17-1.26,1.26
	c-6.21,0.76-11.87,3.78-18.13,4.38c-3.77,0.36-7.23,3.05-11.62,1.69c1.44-2.4,3.8-3.15,5.72-4.35c9-5.6,16.6-12.67,23.14-21
	c1.9-2.43,3.33-5.39,6.2-6.99c0.07,2.38-0.66,4.32-2.52,5.98c-4.7,4.2-7.85,9.81-12.75,13.88c-2.72,2.26-5.54,4.32-8.47,6.26
	c-0.68,0.45-1.78,0.62-1.67,1.83c-0.86,0.01-1.85-0.19-2.06,1.02c-0.04,0.26,0.28,0.77,0.53,0.85
	C177.68,91.7,178.47,91.33,178.57,89.98z"/>
<path class="st0" d="M75.13,243.75c2.32,0.29,2.92,1.44,2.32,3.73c-0.56,2.13-1.19,4.2-2.53,5.93c-3.12,3.99-4.98,8.69-7.5,13.02
	c-0.64,1.09-0.3,2.75-0.45,4.14c-0.11,0.95-0.53,1.72-1.55,1.94c-1.04,0.23-1.62-0.39-2.15-1.2c-2.83-4.34-2.33-9.71,1.26-13.6
	c2.62-2.84,4.23-6.58,7.86-8.55c0.72-0.39,0.68-1.59,0.56-2.51c0.18-0.18,0.33-0.37,0.44-0.6c1.7,0.09,2.03-0.85,1.73-2.28
	L75.13,243.75z"/>
<path class="st2" d="M46.62,113.45c5.29-1.59,10.7-2.78,15.56-5.65c4.3-2.54,5.27-4.63,3.59-8.89c0.74-1.55,1.17-4.05,3.2-3.62
	c1.88,0.39,1.7,3,1.67,4.6c-0.25,11.85-9.33,18.19-20.8,16.5C48.2,116.15,47.18,114.99,46.62,113.45z"/>
<path class="st0" d="M53.73,67.95c0.3,1.25,0.59,2.51,0.89,3.76c0.48,5.6,3.18,10.4,5.47,15.34c0.22,1.51-1.17,2.15-1.76,3.23
	c-1.15,2.11-1.89,1.43-3.27-0.07c-5.14-5.6-4.03-12.32-3.75-18.91c0.05-1.14,0.26-2.27,0.39-3.41
	C52.39,67.48,53.06,67.75,53.73,67.95z"/>
<path class="st2" d="M54.58,193.23c0,2.8,0.02,5.6-0.01,8.4c-0.01,0.73,0.17,1.61-0.68,2.03c-0.82,0.4-1.45-0.12-2.04-0.62
	c-6.19-5.27-6.86-14.62-0.25-19.44c0.65-0.47,1.17-1.04,1.98-0.73c0.87,0.33,0.84,1.19,0.84,1.95c0.01,2.8,0.01,5.6,0.01,8.4
	C54.47,193.23,54.52,193.23,54.58,193.23z"/>
<path class="st2" d="M66.4,217.28c8.39,8.39,7.11,14.97,0.27,22.53c-0.83,0.92-2.08,1.29-2.01-0.37
	C65,232.17,63.32,224.71,66.4,217.28z"/>
<path class="st2" d="M33.61,150.19c5.13,0.3,5.13,0.3,5-4.72c3.38,2.61,7.14,4.1,11.46,4.47c1.53,0.13,3.94,0.27,3.61,2.96
	c-0.28,2.3-2.11,3.11-4.08,3.37C43.21,157.09,37.52,155.93,33.61,150.19z"/>
<path class="st2" d="M181.01,122.18c-2.24-0.57-1.78-2.72-2.43-4.2c-3.37-7.71-3.09-7.62-10.49-8.08
	c-4.55-0.28-9.36,0.31-13.61-2.16c6.03-1.45,12.39-0.29,18.35-2.46c1.57-0.57,2.8,0.02,3.38,1.96
	C177.69,112.25,179.39,117.2,181.01,122.18z"/>
<path class="st0" d="M228.03,183.55c7.26,2.97,9.21,10.64,4.52,16.13c-1.05,1.23-1.6,4.03-3.66,3.25c-1.81-0.69-0.78-3.15-0.82-4.81
	C227.96,193.42,228.03,188.72,228.03,183.55z"/>
<path class="st2" d="M217.96,168.35c-1.56,0.08-1.06-1.14-1.08-1.87c-0.09-3.31-0.09-6.62-0.11-9.93c-0.04-6.05-0.21-6.73-6.17-8.02
	c-5.93-1.29-10.16-5.38-15.21-8.09c-0.6-0.32-0.87-0.91-0.4-1.59c4.73,2.55,9.22,5.5,14.27,7.46c1.41,0.55,2.83,1.29,4.27,1.43
	c3.69,0.36,4.91,2.23,4.71,5.79C217.95,158.47,218.03,163.42,217.96,168.35z"/>
<path class="st2" d="M215.02,216.98c-0.89,4.46-4.54,7.4-6.32,11.38c-0.29,0.65-1.47,1.26-2.35,0.83c-0.99-0.49-0.61-1.62-0.45-2.42
	c0.61-3.03-0.61-3.41-2.98-2.16c-0.98,0.52-2.03,0.82-2.77-0.06c-0.85-1,0.05-1.83,0.7-2.64c1.81-2.24,2.34-5.55,5.56-6.6
	c-0.19,2.74-3.52,3.99-3.3,7.06c2.73,0.34,3.25-3.4,5.82-3.31c0.89,1.57-0.85,3.02,0.23,4.69c1.64-1.1,2.58-2.72,3.64-4.32
	C213.37,218.56,213.1,216.7,215.02,216.98z"/>
<path class="st2" d="M207.38,213.16c-1.18-2.5,1.46-3.63,2.33-4.98c5.62-8.71,7.92-18.06,7.28-28.31c-0.09-1.49-1.18-3.51,1.01-4.62
	c1.47,9.09,0.18,17.83-3.57,26.17c-1.5,3.33-3.43,6.46-5.14,9.69C208.83,211.98,208.74,213.14,207.38,213.16z"/>
<path class="st2" d="M58.01,126.23c-3.31,1.51-6.61,3.03-9.93,4.53c-1.32,0.6-2.48-0.17-3.68-0.52c-2.81-0.83-5.62-1.63-8.57-1.71
	c2.69-4.19,7.03-2.95,10.63-2.61C50.33,126.29,54.15,126.39,58.01,126.23z"/>
<path class="st2" d="M194.25,138.27c-2.9,1.11-3.2-1.9-4.48-3.07c-2.63-2.42-4.9-5.24-7.14-8.04c-0.83-1.04-1.32-2.45-0.91-3.91
	C185.49,128.6,189.88,133.43,194.25,138.27z"/>
<path class="st2" d="M60.09,87.06c-2.29-4.95-4.99-9.75-5.47-15.34c4.33,3.23,6.47,7.65,6.9,12.95
	C61.61,85.76,61.19,86.63,60.09,87.06z"/>
<path class="st2" d="M217.68,229.19c-1.97-0.4-1.06-1.98-1.07-2.99c-0.06-3.36-0.2-6.69-1.05-9.96c-0.15-1.23,0.62-1.81,2.34-2.7
	C217.68,219.04,218.61,224.08,217.68,229.19z"/>
<path class="st2" d="M32.15,132.4c-0.94,4.82-1.03,9.66-0.29,14.52C28.39,143.37,28.55,135.3,32.15,132.4z"/>
<path class="st2" d="M240.02,148.35c-0.58,1.96-2.34,1.86-3.84,2.13c-2.51,0.46-5.04,0.82-7.55,1.22c-0.67-1.19,0.05-1.61,1.04-1.78
	C233.11,149.32,236.44,148.07,240.02,148.35z"/>
<path class="st2" d="M244.38,138.75c2.23,2.73,0.57,8.84-2.66,9.73c-0.04,0.01-0.24-0.57-0.36-0.87
	C243.72,145.11,244.9,142.22,244.38,138.75z"/>
<path class="st2" d="M204.42,85.13c1.66-1.39,3.47-2.28,5.71-1.74C208.73,85.64,206.51,85.17,204.42,85.13z"/>
<path class="st2" d="M38.52,143.65c-1.29-2.09-1.94-4.14,0.47-5.94C39.01,139.7,39.75,141.76,38.52,143.65z"/>
<path class="st2" d="M238.19,155.75c1.47-1,3.1-1.42,4.86-1.27C241.84,156.47,240.11,156.49,238.19,155.75z"/>
<path class="st2" d="M217.79,82.66c1.32-0.25,2.48-0.01,3.36,1.09C219.84,83.97,218.75,83.5,217.79,82.66z"/>
<path class="st2" d="M148.4,110.13c-0.78,1.14-1.86,1.45-3.16,1.14C145.65,109.12,147.08,109.78,148.4,110.13z"/>
<path class="st2" d="M152.91,107.95c-0.76,0.83-1.66,1.43-2.77,1.66C150.36,107.87,151.51,107.7,152.91,107.95z"/>
<path class="st2" d="M53.73,67.95c-0.67-0.2-1.34-0.46-2.03-0.05c-0.11-0.99-0.39-2.41,0.9-2.47C54.3,65.34,53.88,66.85,53.73,67.95
	z"/>
<path class="st2" d="M229.22,154.6c1.26-0.52,2.05,0.14,2.72,1.09C230.57,156.47,229.8,155.78,229.22,154.6z"/>
<path class="st2" d="M205.54,59.14c0.31,1.49-0.36,2.12-1.82,2.04C203.84,60.05,204.1,59.07,205.54,59.14z"/>
<path class="st2" d="M212.89,82.87c0.54-0.75,1.13-0.95,1.82-0.2C214.17,83.37,213.55,83.34,212.89,82.87z"/>
<path class="st2" d="M75.13,243.78c0.3,1.43-0.03,2.37-1.73,2.28C73.39,244.86,73.5,243.74,75.13,243.78z"/>
<path class="st2" d="M32.13,147.4c1.15,0.46,1.95,1.09,1.23,2.48C32.34,149.35,32.12,148.43,32.13,147.4z"/>
<path class="st2" d="M208.65,56.11c0.19,1.01-0.25,1.27-1.15,0.96C207.47,56.26,207.83,55.91,208.65,56.11z"/>
<path class="st2" d="M201.35,85.92c0.3-0.53,0.63-0.87,1.12-0.18C202.18,86.36,201.8,86.36,201.35,85.92z"/>
<path class="st2" d="M117.64,33.09c-0.16-0.67,0.21-0.96,0.78-1.11c0.31,0.36,0.5,0.79,0.1,1.14
	C118.36,33.26,117.94,33.1,117.64,33.09z"/>
<path class="st2" d="M118.94,30.87c0,0,0.02,0,0.02,0c0.09-0.02,0.18-0.03,0.27-0.05C119.13,30.83,119.04,30.85,118.94,30.87z"/>
<path class="st2" d="M100.68,178.82c-4.1,0.24-7.71-0.24-10.93-2.91c-3.42-2.83-3.37-5.35,0.65-7.24
	c6.63-3.13,13.16-3.48,19.31,1.15c3.53,2.66,3.18,4.18-0.32,6.66C106.59,178.47,103.72,179.08,100.68,178.82z"/>
<path class="st2" d="M147.83,241.99c-0.23,2.13,0.33,3.07,2.86,3.08c5.27,0.03,10.1,1.73,12.05,3.62
	c-5.15-1.47-10.31-2.68-15.74-2.64C144.92,246.07,144.92,245.66,147.83,241.99z"/>
<path class="st2" d="M162.36,226.8c-0.38,4.68-4.44,9.6-8.29,10.05c-0.25-2.15,1.94-2,2.92-2.95
	C159.18,231.79,160.42,229.04,162.36,226.8z"/>
<path class="st2" d="M156.72,258.73c1.42,0.43,3.32-0.03,3.5,1.82c0.13,1.37-1.11,2.38-2.49,2.36c-1.85-0.04-2.52-1.78-2.82-3.13
	C154.59,258.37,156.21,259.19,156.72,258.73z"/>
<path class="st2" d="M153.4,237.52c-0.61,2.57-2.05,4.05-4.87,3.72C150.09,239.91,150.6,237.22,153.4,237.52z"/>
<path class="st2" d="M187.74,242.89c-0.11-1.76,0.85-2.1,2.33-1.78C189.92,242.54,188.99,242.92,187.74,242.89z"/>
<path class="st2" d="M191.44,240.29c0.16-1.45,1.13-1.71,2.35-1.59C193.83,240.47,192.7,240.48,191.44,240.29z"/>
<path class="st2" d="M182.21,246.37c0.27-1.18,1.1-1.61,2.22-1.66C184.61,246.5,183.53,246.61,182.21,246.37z"/>
<path class="st2" d="M206.23,234.34c1.26-0.48,2.09,0.14,2.79,1.09C207.67,236.13,206.85,235.47,206.23,234.34z"/>
<path class="st2" d="M161.11,216.61c1.22,0.08,0.99,0.85,0.75,1.61C160.59,218.15,160.79,217.41,161.11,216.61z"/>
<path class="st2" d="M197.6,236.52c-0.06-1.22,0.65-1.21,1.51-0.94C199.4,237.15,198.51,236.85,197.6,236.52z"/>
<path class="st2" d="M195.18,237.82c0.2-0.65,0.53-0.94,1.14-0.38C196.19,238.32,195.79,238.37,195.18,237.82z"/>
<path class="st2" d="M185.18,244.15c0.17-0.74,0.51-1.08,1.22-0.52C186.29,244.48,185.82,244.51,185.18,244.15z"/>
<path class="st1" d="M79.2,221.77c0.11,0.04,0.24,0.05,0.32,0.12c0.05,0.04,0.03,0.16,0.04,0.25c-0.11-0.13-0.21-0.27-0.32-0.4
	C79.24,221.73,79.2,221.77,79.2,221.77z"/>
<path class="st1" d="M197.07,165.39c2.01,1.76,4.02,3.52,6.03,5.27c-1.59,2.96-5.6,4.01-6.12,7.8c-0.2,0.21-0.39,0.43-0.58,0.64
	c-1.11,0.02-1.89,0.39-1.73,1.71c-0.19,0.19-0.38,0.39-0.57,0.58c-2.45,0.39-3.9,2.37-5.78,3.67c-0.42,0.23-0.84,0.46-1.26,0.69
	c-2.9-0.41-5.17,1.71-8.05,1.85c-7.05,0.34-13.34-1.94-19.58-4.7c-0.52-0.21-1.05-0.42-1.57-0.63c-1.35-1.24-2.19-4.17-4.76-1.54
	c-0.54,0.56-0.96,1.28-1.82,1.08c-1.18-0.28-0.85-1.39-0.98-2.21c-0.89-5.28-0.94-10.61-0.97-15.95c1.6-5.82,6.92-7.23,11.5-8.86
	c8.04-2.86,16.38-4.68,25.06-4.74c9.52-0.06,16.91,3.68,22.37,11.39c0.36,0.51,0.62,1.11,0.89,1.68c0.37,0.79,1.07,1.78,0.19,2.42
	c-0.83,0.61-1.58-0.2-2.2-0.89c-1.76-1.98-3.76-3.62-6.37-4.36c0.08-0.93-0.64-1.49-1.26-1.67c-5.48-1.58-10.98-1.79-17.51,0
	c4.07,1.73,7.72,1.6,10.57,3.62c0.74,0.45,1.49,0.9,2.23,1.35C195.37,164.44,195.81,165.44,197.07,165.39z M166.79,176.33
	c-0.34,2.07,1.04,1.26,1.98,1.18c5.33,1.65,10.68,1.6,16.04,0.12c0.73,0.05,1.6,0.29,1.36-0.99c0.88-0.5,1.81-0.93,2.62-1.52
	c3.43-2.52,3.15-3.98-0.51-6.13c-4.97-2.92-10.11-2.78-15.43-1.65c-3.53-0.7-5.61,2.33-8.45,3.4c-1.13,0.43-2.62,1.76-2.08,3.2
	c0.51,1.36,2,2.19,3.73,1.78C166.29,175.93,166.54,176.13,166.79,176.33z"/>
<path class="st2" d="M149.34,163.66c0.02,5.33,0.07,10.67,0.97,15.95c0.14,0.82-0.2,1.93,0.98,2.21c0.86,0.2,1.28-0.52,1.82-1.08
	c2.56-2.64,3.41,0.29,4.76,1.54c-1.75,0.23-3.37,0.53-4.37,2.33c-0.55,0.99-1.74,1.72-2.89,1.44c-1.25-0.3-0.84-1.68-0.98-2.61
	c-0.71-4.88-1.48-9.75-1.94-14.65C147.52,167.02,147.06,164.8,149.34,163.66z"/>
<path class="st2" d="M159.44,182.9c6.24,2.76,12.53,5.04,19.58,4.7c2.88-0.14,5.15-2.25,8.05-1.85c-1.68,2.49-4.43,2.59-6.93,2.73
	c-4.08,0.23-8.22,0.37-12.25-0.14C164.43,187.9,160.99,186.66,159.44,182.9z"/>
<path class="st2" d="M192.59,162.25c-2.86-2.01-6.5-1.89-10.57-3.62c6.53-1.79,12.03-1.58,17.51,0c0.62,0.18,1.34,0.74,1.26,1.67
	c-2.09,0.8-4.24-0.07-6.17-0.37C191.83,159.51,192.62,160.94,192.59,162.25z"/>
<path class="st2" d="M196.98,178.47c0.53-3.79,4.54-4.85,6.12-7.8c1.64-0.29,1.3,1.09,0.84,1.46
	C201.51,174.12,200.05,177.18,196.98,178.47z"/>
<path class="st2" d="M188.32,185.06c1.88-1.3,3.33-3.27,5.78-3.67C192.78,183.59,191.17,185.31,188.32,185.06z"/>
<path class="st2" d="M197.07,165.39c-1.27,0.05-1.7-0.95-2.26-1.79C196.32,163.26,197.35,163.5,197.07,165.39z"/>
<path class="st2" d="M194.67,180.82c-0.16-1.32,0.62-1.69,1.73-1.71C196.67,180.53,196.01,181.02,194.67,180.82z"/>
<path class="st0" d="M178.57,89.98c-0.1,1.35-0.88,1.72-2.06,1.35c-0.25-0.08-0.57-0.59-0.53-0.85c0.21-1.21,1.2-1.01,2.06-1.02
	C178.19,89.65,178.37,89.83,178.57,89.98z"/>
<path class="st0" d="M172.85,167.35c5.32-1.13,10.46-1.27,15.43,1.65c3.66,2.15,3.94,3.61,0.51,6.13c-0.81,0.59-1.74,1.02-2.62,1.52
	c-0.9-0.29-1.52-0.18-1.37,0.99c-5.36,1.49-10.7,1.53-16.04-0.11c0.07-1.61-1.08-1.18-1.98-1.19c-0.25-0.2-0.5-0.4-0.74-0.6
	c-0.5-3.44,1.37-5.37,4.26-6.6C171.3,168.71,172.62,168.82,172.85,167.35z"/>
<path class="st2" d="M172.85,167.35c-0.23,1.48-1.55,1.37-2.54,1.79c-2.89,1.23-4.77,3.16-4.26,6.6c-1.73,0.41-3.22-0.42-3.73-1.78
	c-0.54-1.44,0.95-2.77,2.08-3.2C167.24,169.67,169.32,166.65,172.85,167.35z"/>
<path class="st2" d="M166.79,176.33c0.9,0,2.05-0.43,1.98,1.19C167.83,177.59,166.45,178.4,166.79,176.33z"/>
<path class="st2" d="M184.81,177.63c-0.15-1.17,0.47-1.28,1.37-0.99C186.4,177.92,185.53,177.68,184.81,177.63z"/>
</svg>
